<svg xmlns="http://www.w3.org/2000/svg" width="960" height="600.878" viewBox="0 0 960 600.878" xmlns:xlink="http://www.w3.org/1999/xlink" role="img" artist="Katerina Limpitsouni" source="https://undraw.co/"><g transform="translate(-489 -198)"><g transform="translate(630.958 198)"><path d="M859.418,502.756H272.95a15.117,15.117,0,0,1-15.1-15.1V126.028a11.075,11.075,0,0,1,11.062-11.063H863.265a11.267,11.267,0,0,1,11.254,11.254V487.656a15.117,15.117,0,0,1-15.1,15.1Z" transform="translate(-257.638 -102.331)" fill="#f2f2f2"/><path d="M839.792,483.949H293.219c-8.012,0-14.53-6.1-14.53-13.607V155.432c0-5.564,4.83-10.091,10.767-10.091H843.377c6.036,0,10.946,4.6,10.946,10.258V470.342C854.323,477.845,847.8,483.949,839.792,483.949Z" transform="translate(-259.406 -104.908)" fill="#fff"/><path d="M874.288,123.993H257.618v-7.688a15.168,15.168,0,0,1,15.155-15.146h586.36a15.168,15.168,0,0,1,15.155,15.146Z" transform="translate(-257.618 -101.159)" fill="#e6e6e6"/><circle cx="3.92" cy="3.92" r="3.92" transform="translate(23.621 7.519)" fill="#fff"/><circle cx="3.92" cy="3.92" r="3.92" transform="translate(38.502 7.519)" fill="#fff"/><circle cx="3.92" cy="3.92" r="3.92" transform="translate(53.38 7.519)" fill="#fff"/><path d="M785.32,436.1H361.75a16.034,16.034,0,0,1-16.015-16.015V215.864a11.991,11.991,0,0,1,11.977-11.978H789.166a12.183,12.183,0,0,1,12.169,12.169v204.03A16.033,16.033,0,0,1,785.32,436.1ZM357.712,205.717a10.159,10.159,0,0,0-10.147,10.148V420.085A14.2,14.2,0,0,0,361.75,434.27H785.32A14.2,14.2,0,0,0,799.5,420.085V216.056a10.35,10.35,0,0,0-10.339-10.339Z" transform="translate(-265.094 -109.875)" fill="#ccc"/><path d="M377.877,421.586H772.162A14.642,14.642,0,0,0,786.8,406.944V236.223a14.643,14.643,0,0,0-14.643-14.643H377.877a14.643,14.643,0,0,0-14.642,14.643V406.944A14.643,14.643,0,0,0,377.877,421.586Z" transform="translate(-266.579 -111.376)" fill="#f2f2f2"/><circle cx="8.236" cy="8.236" r="8.236" transform="translate(147.831 143.401)" fill="#ccc"/><circle cx="8.236" cy="8.236" r="8.236" transform="translate(147.831 174.516)" fill="#ccc"/><circle cx="8.236" cy="8.236" r="8.236" transform="translate(147.831 205.631)" fill="#ccc"/><circle cx="8.236" cy="8.236" r="8.236" transform="translate(147.831 236.747)" fill="#ccc"/><path d="M743.955,267.685H473.069a.915.915,0,1,1,0-1.83H743.955a.915.915,0,1,1,0,1.83Z" transform="translate(-275.82 -115.133)" fill="#ccc"/><path d="M743.955,301.685H473.069a.915.915,0,1,1,0-1.83H743.955a.915.915,0,1,1,0,1.83Z" transform="translate(-275.82 -118.017)" fill="#ccc"/><path d="M743.955,335.685H473.069a.915.915,0,1,1,0-1.83H743.955a.915.915,0,1,1,0,1.83Z" transform="translate(-275.82 -120.902)" fill="#ccc"/><path d="M743.955,369.685H473.069a.915.915,0,1,1,0-1.83H743.955a.915.915,0,1,1,0,1.83Z" transform="translate(-275.82 -123.787)" fill="#ccc"/><path d="M526.269,400.716h-26.54a4.581,4.581,0,0,1-4.576-4.576V371.43a4.581,4.581,0,0,1,4.576-4.576h26.54a4.581,4.581,0,0,1,4.576,4.576V396.14a4.581,4.581,0,0,1-4.576,4.576Z" transform="translate(-277.772 -123.702)" fill="#107FC9"/><path d="M591.269,397.831h-26.54a4.581,4.581,0,0,1-4.576-4.576V337.43a4.581,4.581,0,0,1,4.576-4.576h26.54a4.581,4.581,0,0,1,4.576,4.576v55.825A4.581,4.581,0,0,1,591.269,397.831Z" transform="translate(-283.286 -120.817)" fill="#107FC9"/><path d="M657.269,394.946h-26.54a4.581,4.581,0,0,1-4.576-4.576V303.43a4.581,4.581,0,0,1,4.576-4.576h26.54a4.581,4.581,0,0,1,4.576,4.576v86.94A4.581,4.581,0,0,1,657.269,394.946Z" transform="translate(-288.886 -117.933)" fill="#107FC9"/><path d="M725.269,392.146h-26.54a4.581,4.581,0,0,1-4.576-4.576V270.43a4.581,4.581,0,0,1,4.576-4.576h26.54a4.581,4.581,0,0,1,4.576,4.576v117.14A4.581,4.581,0,0,1,725.269,392.146Z" transform="translate(-294.655 -115.133)" fill="#107FC9"/><path d="M743.955,403.685H473.069a.915.915,0,1,1,0-1.83H743.955a.915.915,0,1,1,0,1.83Z" transform="translate(-275.82 -126.671)" fill="#3f3d56"/></g><path d="M672.3,798.671H498.415a.915.915,0,1,1,0-1.83H672.3a.915.915,0,1,1,0,1.83Z" transform="translate(352.987 -2.45)" fill="#ccc"/><path d="M277.3,798.671H103.415a.915.915,0,1,1,0-1.83H277.3a.915.915,0,1,1,0,1.83Z" transform="translate(386.5 -2.45)" fill="#ccc"/><g transform="translate(1119.227 456.698)"><g transform="translate(0 92.507)"><path d="M963.572,736.732,822.825,687.715a9.661,9.661,0,0,1-5.939-12.287l36.575-105.022a7.077,7.077,0,0,1,9-4.351l145.506,50.674a7.2,7.2,0,0,1,4.426,9.157L975.859,730.792a9.661,9.661,0,0,1-12.287,5.939Z" transform="translate(-816.349 -565.662)" fill="#e6e6e6"/><path d="M835.967,682.886l123.074,42.862a9.357,9.357,0,0,0,11.914-5.759l29.534-84.8a9.357,9.357,0,0,0-5.759-11.914L871.656,580.408a9.357,9.357,0,0,0-11.914,5.759l-29.534,84.8a9.357,9.357,0,0,0,5.759,11.914Z" transform="translate(-817.481 -566.869)" fill="#fff"/><path d="M869.673,626.329l-6.1-2.123a1.322,1.322,0,0,1-.813-1.681l2.123-6.1a1.322,1.322,0,0,1,1.681-.813l6.1,2.123a1.322,1.322,0,0,1,.813,1.681l-2.123,6.1a1.322,1.322,0,0,1-1.681.813Z" transform="translate(-820.281 -569.894)" fill="#107FC9"/><path d="M863.663,643.585l-6.1-2.123a1.322,1.322,0,0,1-.813-1.681l2.123-6.1a1.322,1.322,0,0,1,1.681-.813l6.1,2.123a1.322,1.322,0,0,1,.813,1.681l-2.123,6.1a1.322,1.322,0,0,1-1.681.813Z" transform="translate(-819.771 -571.358)" fill="#3f3d56"/><path d="M857.654,660.841l-6.1-2.123a1.322,1.322,0,0,1-.813-1.681l2.123-6.1a1.322,1.322,0,0,1,1.681-.813l6.1,2.123a1.322,1.322,0,0,1,.813,1.681l-2.123,6.1A1.322,1.322,0,0,1,857.654,660.841Z" transform="translate(-819.261 -572.822)" fill="#ccc"/><path d="M912.269,637.995,882.9,627.767a1.32,1.32,0,0,1,.868-2.494L913.138,635.5a1.32,1.32,0,0,1-.868,2.494Z" transform="translate(-821.921 -570.713)" fill="#ccc"/><path d="M906.26,655.251l-29.368-10.228a1.32,1.32,0,0,1,.868-2.494l29.368,10.228a1.32,1.32,0,1,1-.868,2.493Z" transform="translate(-821.411 -572.177)" fill="#ccc"/><path d="M900.25,672.507l-29.368-10.228a1.32,1.32,0,1,1,.868-2.493l29.368,10.228a1.32,1.32,0,1,1-.868,2.493Z" transform="translate(-820.901 -573.641)" fill="#ccc"/><path d="M986.036,679.631c.214-.513.415-1.035.6-1.567A27.673,27.673,0,0,0,969.6,642.829l-9.653,27.717Z" transform="translate(-828.533 -572.209)" fill="#107FC9"/><path d="M954.368,672.246l9.653-27.717a27.673,27.673,0,1,0,16.432,36.8Z" transform="translate(-825.757 -572.222)" fill="#3f3d56"/></g><path d="M1080.3,798.671H906.415a.915.915,0,1,1,0-1.83H1080.3a.915.915,0,1,1,0,1.83Z" transform="translate(-751.437 -459.148)" fill="#ccc"/><g transform="translate(147.321 0)"><rect width="11.83" height="12.416" transform="translate(62.787 315.684)" fill="#ed9da0"/><path d="M441.422,601.033H415.029a15.224,15.224,0,0,1-6.558-1.494L403.6,597.2a2.922,2.922,0,0,1,.487-5.449l10.038-2.778,17.175-9.026.013.065c.321,1.626.819,4.083.884,4.233,1.761,2.018,3.57,2.947,5.377,2.764,3.151-.321,5.247-3.959,5.268-4l.015-.028h.032a2.089,2.089,0,0,1,1.622.884,4.063,4.063,0,0,1,.208,3.006c.861.842,1.249,5.544,1.278,5.928a5.215,5.215,0,0,1,1.761,3.771,4.059,4.059,0,0,1-1.7,2.853,7.371,7.371,0,0,1-4.632,1.607Z" transform="translate(-368.923 -261.638)" fill="#090814"/><path d="M586.529,386.364a6.145,6.145,0,0,0,7.643-5.514l21.1-5.65-8.486-7.535-18.732,6.521a6.179,6.179,0,0,0-1.521,12.179Z" transform="translate(-581.826 -247.566)" fill="#ed9da0"/><path d="M490.238,341.254a3.6,3.6,0,0,0,2.922.232l34.7-13.17A37.058,37.058,0,0,0,547.807,311.5l14.471-25.814a11.584,11.584,0,1,0-17.284-15.427l-25.047,39.7-31.522,18.481a3.607,3.607,0,0,0-1.534,3.836l1.568,6.643a3.6,3.6,0,0,0,1.778,2.33Z" transform="translate(-470.074 -205.646)" fill="#e6e6e6"/><path d="M3.936,0-8.475,3.462-5,16l15.821-2.607Z" transform="translate(77.543 34.145)" fill="#ed9da0"/><rect width="11.317" height="11.878" transform="matrix(-0.799, 0.602, -0.602, -0.799, 156.381, 309.599)" fill="#ed9da0"/><path d="M6.069,0H31.317a14.562,14.562,0,0,1,6.267,1.428L42.24,3.667a2.8,2.8,0,0,1-.465,5.213l-9.6,2.66L15.749,20.175l-.013-.063c-.307-1.556-.781-3.905-.842-4.049-1.687-1.928-3.415-2.82-5.142-2.644-3.015.305-5.02,3.787-5.039,3.822l-.015.027H4.667a2,2,0,0,1-1.552-.846,3.907,3.907,0,0,1-.2-2.875c-.824-.8-1.194-5.3-1.222-5.672A4.993,4.993,0,0,1,.006,4.265,3.885,3.885,0,0,1,1.635,1.533,7.052,7.052,0,0,1,6.066,0Z" transform="matrix(-0.799, 0.602, -0.602, -0.799, 166.112, 315.799)" fill="#090814"/><path d="M456.839,300.68s5.3-4.059,5.3,5.856l.836,32.768-9.342,30.955-5.438-10.04,2.231-21.753Z" transform="translate(-345.204 -219.498)" fill="#e6e6e6"/><path d="M392.379,446.168s-6.144,29.923,1.638,54.478l4.194,91.412,15.874,1.777,5.531-70.045,5.326-34.819L436,520.719l36.455,67.174,16.793-13.108S470.639,524,456.89,513.342l-6.9-78.537Z" transform="translate(-337.424 -275.361)" fill="#090814"/><circle cx="17.982" cy="17.982" r="17.982" transform="translate(66.495 50.146) rotate(-118.693)" fill="#ed9da0"/><path d="M512.893,187.945c-2.156.28-3.781-1.928-4.536-3.964s-1.329-4.412-3.2-5.513c-2.561-1.5-5.837.305-8.765-.191-3.306-.562-5.457-4.065-5.625-7.414s1.164-6.571,2.472-9.659l.456,3.838a7.611,7.611,0,0,1,3.326-6.652l-.589,5.632a5.977,5.977,0,0,1,6.876-4.944l-.092,3.355a55.442,55.442,0,0,1,11.5-.562,18.6,18.6,0,0,1,10.591,4.08c4.339,3.777,5.928,9.987,5.4,15.718s-2.9,11.109-5.361,16.311c-.62,1.308-1.478,2.784-2.914,2.95a2.936,2.936,0,0,1-2.876-2.169,7.855,7.855,0,0,1,.035-3.857,16.45,16.45,0,0,0,.482-5.839c-.339-1.936-1.734-3.846-3.684-4.084s-3.946,1.993-3.008,3.719Z" transform="translate(-437.973 -158.389)" fill="#090814"/><path d="M479.471,240.466l-3.765-5.227s-4.208,1.43-15.477,7.04l-.8,4.9L439.871,367.493s19.552-1.062,35.556-1.536,28.462-.359,28.462-.359l-2.11-34.782-3.068-26.492,4.741-24.956s5.965-22.92-17.012-35.274Z" transform="translate(-388.613 -192.75)" fill="#e6e6e6"/></g></g><g transform="translate(504.133 456.698)"><path d="M63.7,505.744l13.221,1.943L91.237,468.06l-15.585-8.429Z" transform="translate(-60.387 -180.287)" fill="#9f616a"/><path d="M108.08,520.375h0a11.474,11.474,0,0,1,.079,3.83h0a4.535,4.535,0,0,1-5.147,3.827l-40.944-6.02a3.094,3.094,0,0,1-2.61-3.511l.251-1.7s-1.273-5.421,3.827-11.123c0,0,5.734,6.606,14.618,0l2.947-3.909,13.423,13.729,9,2.475c1.969.542,3.788.518,4.564,2.406Z" transform="translate(-59.425 -188.558)" fill="#090814"/><path d="M94.083,510.459h13.43l6.389-51.807H94.08Z" transform="translate(13.016 -178.986)" fill="#9f616a"/><path d="M139.217,520.483h0a11.53,11.53,0,0,1,.639,3.8h0a4.558,4.558,0,0,1-4.558,4.558H93.7a3.11,3.11,0,0,1-3.11-3.11V524s-2.056-5.2,2.178-11.619c0,0,5.265,5.023,13.13-2.847l2.32-4.2,16.793,12.282,9.308,1.145c2.037.251,3.842-.039,4.89,1.725Z" transform="translate(13.897 -189.315)" fill="#090814"/><path d="M0,.428S12.792-8.11,16.525-2.447,18.882,23.5,18.882,23.5L0,18.975Z" transform="translate(74.606 34.742)" fill="#9f616a"/><path d="M374.881,437.337s-4.13,49.658-5.017,60.3a75.677,75.677,0,0,1-4.433,19.508,18.343,18.343,0,0,0-1.773,7.094s-11.355,19.075-18.5,33.035a100.206,100.206,0,0,0-9.181,27.035s17.584,3.243,20.248,2.357,6.09-20.206,35.81-68.633l21.282-44.338s12.418,39.9,15.075,44.338c0,0,4.642,65.513,6.415,69.947s24.079-1.314,24.079-1.314L455,519.805l-7.981-75.374-40.79-12.418Z" transform="translate(-330.556 -277.674)" fill="#090814"/><circle cx="7.764" cy="7.764" r="7.764" transform="translate(142.602 80.037)" fill="#9f616a"/><circle cx="18.621" cy="18.621" r="18.621" transform="translate(65.64 5.697)" fill="#9f616a"/><path d="M439.683,206.407l-1.07-1.088c-.068-.158-7.349-15.958-1.424-25.706,2.742-4.508,7.728-7.058,14.82-7.57,11.1-.8,18.69,1.829,22.578,7.818A6.713,6.713,0,0,1,468.93,190.2h-.149l-2.039-2.647-.119.258a4.213,4.213,0,0,1-4.419,2.28c-.338-.025-.637.267-.877.891a1.582,1.582,0,0,1-1.186,1.1c-1.467.286-3.559-1.562-4.494-2.484a1.5,1.5,0,0,1-.7,1.028c-.986.569-2.522-.174-2.962-.411-3.51.746-5.783.547-6.755-.592-.66,4.667-2.076,13.074-3.774,13.54a.849.849,0,0,1-.927-.4c-.409-.531-.774-.8-1-.721-.554.176-.282,2-.328,3.169Z" transform="translate(-371.064 -171.903)" fill="#090814"/><path d="M503.147,288.511l8.846-1.437a43.187,43.187,0,0,1,12.436,22.721c2.559,13.649.168,13.361,0,13.571-4.434,5.542-17.736,8.6-17.736,8.6l-11.527-22.168Z" transform="translate(-394.671 -219.294)" fill="#e6e6e6"/><path d="M380.25,320s-7.981,33.694,1.773,33.694,32.809-38.13,32.809-38.13l-7.977-9.752-7.693,10.678-6.632,9.207-.75-10.134Z" transform="translate(-347.148 -226.842)" fill="#9f616a"/><circle cx="7.764" cy="7.764" r="7.764" transform="translate(57.796 74.662)" fill="#9f616a"/><path d="M400.461,278.468l-5.321-5.321s-10.641,6.207-11.527,12.418-5.321,25.715-5.321,25.715l16.405,1.33,5.321-7.981Z" transform="translate(-347.598 -213.685)" fill="#e6e6e6"/></g></g></svg>